<?xml version="1.0" encoding="UTF-8" standalone="no"?>
<svg
   xmlns:dc="http://purl.org/dc/elements/1.1/"
   xmlns:cc="http://creativecommons.org/ns#"
   xmlns:rdf="http://www.w3.org/1999/02/22-rdf-syntax-ns#"
   xmlns:svg="http://www.w3.org/2000/svg"
   xmlns="http://www.w3.org/2000/svg"
   viewBox="0 0 1122.52 793.70667"
   height="793.70667"
   width="1122.52"
   xml:space="preserve"
   id="svg2"
   version="1.1"><metadata
     id="metadata8"><rdf:RDF><cc:Work
         rdf:about=""><dc:format>image/svg+xml</dc:format><dc:type
           rdf:resource="http://purl.org/dc/dcmitype/StillImage" /></cc:Work></rdf:RDF></metadata><defs
     id="defs6" /><g
     transform="matrix(1.3333333,0,0,-1.3333333,0,793.70667)"
     id="g10"><g
       transform="translate(504.8105,582.3066)"
       id="g12"><path
         id="path14"
         style="fill:#0a0a09;fill-opacity:1;fill-rule:nonzero;stroke:none"
         d="m 0,0 -398.354,-107.415 -29.407,-280.435 465.474,-177.044 229.427,219.23 z m -2.301,-6.834 261.39,-338.225 -222.783,-212.88 -457.618,174.056 28.496,271.747 z" /></g><text
       id="text18"
       style="font-variant:normal;font-weight:normal;font-stretch:normal;font-size:72.84400177px;font-family:Champagne;-inkscape-font-specification:Champagne;writing-mode:lr-tb;fill:#10100f;fill-opacity:1;fill-rule:nonzero;stroke:none"
       transform="matrix(1,0,0,-1,486.061,199.3721)"><tspan
         id="tspan16"
         y="0"
         x="0 17.701092 49.024014 80.274086 91.564911 114.43793 125.72874">tunisie</tspan></text>
<text
       id="text26"
       style="font-variant:normal;font-weight:bold;font-stretch:normal;font-size:130.55479431px;font-family:Champagne;-inkscape-font-specification:Champagne;writing-mode:lr-tb;fill:#10100f;fill-opacity:1;fill-rule:nonzero;stroke:none"
       transform="matrix(1,0,0,-1,119.4844,267.0381)"><tspan
         id="tspan20"
         y="0"
         x="0 74.677345 111.29797 216.13347 292.18164">SIMPL</tspan><tspan
         id="tspan22"
         y="0"
         x="338.65915">O</tspan><tspan
         id="tspan24"
         y="0"
         x="441.92801">N</tspan></text>
<path
       id="path28"
       style="fill:#db2b2d;fill-opacity:1;fill-rule:nonzero;stroke:none"
       d="m 516.149,306.316 h -14.004 v -14.004 h 14.004 z m 0,24.984 h -14.004 v -14.004 h 14.004 z" /><g
       transform="translate(468.0869,235.1748)"
       id="g30"><path
         id="path32"
         style="fill:none;stroke:#231f20;stroke-width:2;stroke-linecap:butt;stroke-linejoin:miter;stroke-miterlimit:10;stroke-dasharray:none;stroke-opacity:1"
         d="M 0,0 V -35.906" /></g></g></svg>